<svg xmlns="http://www.w3.org/2000/svg" width="208" height="80" fill="none">
  <path fill="#fff" d="M7.04 14.047c0-.219-.035-.414-.103-.586a1.085 1.085 0 0 0-.351-.477 2.804 2.804 0 0 0-.711-.421 9.9 9.9 0 0 0-1.172-.438 12.978 12.978 0 0 1-1.484-.563 5.826 5.826 0 0 1-1.211-.726 3.096 3.096 0 0 1-.805-.953C1.01 9.518.914 9.096.914 8.617c0-.469.099-.896.297-1.281.203-.385.49-.716.86-.992.37-.282.804-.498 1.304-.649a5.82 5.82 0 0 1 1.672-.226c.844 0 1.573.153 2.187.46.62.308 1.1.725 1.438 1.25.338.527.508 1.118.508 1.774H7.04a1.88 1.88 0 0 0-.228-.937 1.54 1.54 0 0 0-.671-.641c-.297-.156-.672-.234-1.125-.234-.438 0-.802.065-1.094.195-.287.13-.503.307-.649.531-.14.224-.21.474-.21.75 0 .209.049.396.148.563.099.161.247.315.445.46.198.141.443.274.735.4.296.119.64.239 1.03.358.626.188 1.173.396 1.641.625.474.23.868.49 1.18.782.318.291.555.62.711.984.162.365.242.779.242 1.242 0 .49-.096.927-.289 1.313a2.777 2.777 0 0 1-.828.984c-.36.271-.792.477-1.297.617-.5.14-1.06.211-1.68.211a6.286 6.286 0 0 1-1.64-.218A4.988 4.988 0 0 1 2 16.265a3.429 3.429 0 0 1-1.047-1.141c-.26-.463-.39-1.005-.39-1.625h2.156c0 .36.057.667.172.922.12.25.286.456.5.617.218.156.474.27.765.344.292.073.607.11.946.11.437 0 .796-.06 1.078-.18.286-.126.5-.297.64-.516.146-.219.22-.469.22-.75Zm3.608-1.188v-.164c0-.62.089-1.19.266-1.71.177-.527.435-.982.773-1.368a3.481 3.481 0 0 1 1.242-.898c.49-.219 1.047-.328 1.672-.328.636 0 1.198.109 1.688.328.494.213.911.513 1.25.898.338.386.596.841.773 1.367.177.521.266 1.091.266 1.711v.164a5.33 5.33 0 0 1-.266 1.711 4.055 4.055 0 0 1-.773 1.367 3.481 3.481 0 0 1-1.242.899c-.49.213-1.05.32-1.68.32-.625 0-1.185-.107-1.68-.32a3.465 3.465 0 0 1-1.25-.898 4.056 4.056 0 0 1-.773-1.368 5.333 5.333 0 0 1-.266-1.71Zm2.063-.164v.164c0 .37.036.716.109 1.04.073.322.185.606.336.851.151.245.346.438.586.578.245.136.536.203.875.203.333 0 .62-.068.86-.203.239-.14.434-.333.585-.578.156-.245.271-.529.344-.852.073-.322.11-.669.11-1.039v-.164c0-.364-.037-.705-.11-1.023a2.657 2.657 0 0 0-.344-.852 1.641 1.641 0 0 0-.594-.586c-.24-.146-.528-.218-.867-.218a1.62 1.62 0 0 0-1.445.804 2.773 2.773 0 0 0-.336.852c-.073.318-.11.659-.11 1.023Zm11.156 2.836c.291 0 .552-.057.78-.172a1.37 1.37 0 0 0 .548-.484c.14-.208.216-.45.226-.727h1.946a2.738 2.738 0 0 1-.485 1.54 3.317 3.317 0 0 1-1.25 1.078c-.515.26-1.094.39-1.734.39-.651 0-1.219-.11-1.703-.328a3.316 3.316 0 0 1-1.211-.914 4.047 4.047 0 0 1-.719-1.36 5.682 5.682 0 0 1-.234-1.656v-.25c0-.588.078-1.14.234-1.656.162-.515.401-.969.719-1.36.323-.39.726-.694 1.21-.913.485-.219 1.05-.328 1.696-.328.682 0 1.281.132 1.797.398.52.266.927.64 1.219 1.125.297.484.45 1.055.46 1.711h-1.945a1.873 1.873 0 0 0-.203-.813 1.493 1.493 0 0 0-.531-.578c-.23-.146-.508-.218-.836-.218-.349 0-.64.072-.875.218a1.51 1.51 0 0 0-.54.602c-.124.25-.213.531-.265.844a6.4 6.4 0 0 0-.07.968v.25c0 .344.023.672.07.985.052.312.14.594.266.844.13.244.31.44.539.585.234.146.531.22.89.22Zm7.382-6.984V17h-2.07V8.547h2.07Zm-2.21-2.211c0-.307.103-.563.312-.766.213-.203.5-.304.859-.304.36 0 .643.101.852.304.213.203.32.459.32.766 0 .302-.107.555-.32.758-.209.203-.493.304-.852.304-.36 0-.646-.101-.86-.304a1.016 1.016 0 0 1-.312-.758Zm9.155 8.867v-3.898c0-.287-.05-.534-.148-.742a1.073 1.073 0 0 0-.453-.485c-.204-.114-.461-.172-.774-.172-.276 0-.518.047-.727.14a1.072 1.072 0 0 0-.468.4 1.03 1.03 0 0 0-.164.577h-2.07c0-.348.083-.68.25-.992.166-.317.403-.599.71-.844.313-.25.685-.445 1.117-.585a4.784 4.784 0 0 1 1.47-.211c.64 0 1.21.109 1.71.328.505.213.901.536 1.188.969.291.432.437.976.437 1.632v3.688c0 .422.026.784.078 1.086a3 3 0 0 0 .25.773V17h-2.1a3.117 3.117 0 0 1-.227-.813 6.368 6.368 0 0 1-.078-.984Zm.29-3.351.015 1.226h-1.305c-.323 0-.607.034-.852.102a1.574 1.574 0 0 0-.601.28 1.14 1.14 0 0 0-.352.438 1.328 1.328 0 0 0-.117.57c0 .21.047.397.14.563.1.167.24.3.423.399.187.093.406.14.656.14.364 0 .682-.073.953-.218.27-.152.482-.334.633-.547.15-.214.232-.417.242-.61l.594.89a3.462 3.462 0 0 1-.328.68 3.06 3.06 0 0 1-.563.672 2.86 2.86 0 0 1-.828.516 2.892 2.892 0 0 1-1.125.203 3.22 3.22 0 0 1-1.469-.328 2.603 2.603 0 0 1-1.023-.898 2.307 2.307 0 0 1-.375-1.297c0-.448.083-.844.25-1.188.166-.343.414-.633.742-.867.328-.24.734-.42 1.219-.539a6.815 6.815 0 0 1 1.68-.187h1.39ZM44.638 5v12h-2.07V5h2.07Zm8.648 5.281V17h-2.063V8.547h1.946l.117 1.734Zm-.305 2.188h-.633c0-.589.07-1.13.211-1.625.146-.495.36-.925.64-1.29.282-.37.628-.656 1.04-.859.417-.203.898-.304 1.445-.304.38 0 .73.057 1.047.171.318.11.591.284.82.524.235.234.415.542.54.922.125.375.187.825.187 1.351V17h-2.062v-5.43c0-.396-.058-.705-.172-.93a.928.928 0 0 0-.477-.468 1.817 1.817 0 0 0-.75-.14c-.323 0-.601.064-.836.195-.229.125-.42.299-.57.523a2.529 2.529 0 0 0-.328.773 4.17 4.17 0 0 0-.102.946Zm5.14-.383-.85.156a5.296 5.296 0 0 1 .218-1.492c.14-.469.346-.878.617-1.227.276-.354.617-.63 1.024-.828.411-.203.885-.304 1.422-.304.416 0 .791.06 1.125.18.338.114.627.299.867.554.24.25.422.576.547.977.13.4.195.89.195 1.468V17h-2.078v-5.438c0-.411-.058-.726-.172-.945a.897.897 0 0 0-.477-.453 1.866 1.866 0 0 0-.734-.133c-.287 0-.537.055-.75.164-.208.104-.386.25-.531.438a2.03 2.03 0 0 0-.32.656 2.98 2.98 0 0 0-.102.797Zm11.133 5.07c-.64 0-1.216-.104-1.726-.312a3.791 3.791 0 0 1-1.305-.867 3.988 3.988 0 0 1-.82-1.305 4.546 4.546 0 0 1-.281-1.61v-.312a5.3 5.3 0 0 1 .28-1.773c.188-.537.454-.998.798-1.383a3.508 3.508 0 0 1 1.234-.89 3.936 3.936 0 0 1 1.586-.313c.599 0 1.127.101 1.586.304.458.198.841.48 1.148.844.308.365.54.802.696 1.313.156.505.234 1.065.234 1.68v.866H66.06v-1.421h4.594v-.157a2.488 2.488 0 0 0-.188-.898 1.435 1.435 0 0 0-.531-.656c-.24-.167-.55-.25-.93-.25-.307 0-.575.067-.804.203-.224.13-.412.318-.563.562a2.79 2.79 0 0 0-.328.86 5.19 5.19 0 0 0-.11 1.109v.313c0 .354.047.682.141.984.1.302.242.565.43.789.193.219.422.39.687.516.271.12.579.18.922.18.433 0 .823-.084 1.172-.25.354-.173.662-.425.922-.759l1.04 1.079c-.178.26-.417.51-.72.75-.296.24-.656.434-1.078.585a4.46 4.46 0 0 1-1.46.22Zm10.203-1.953V5h2.078v12H79.66l-.203-1.797Zm-5.43-2.328v-.164c0-.646.073-1.232.22-1.758a4.12 4.12 0 0 1 .655-1.367 3.01 3.01 0 0 1 1.04-.883 3.053 3.053 0 0 1 1.398-.312c.505 0 .945.101 1.32.304.38.203.703.492.969.867.27.376.487.82.648 1.336.162.51.28 1.073.352 1.688v.445a8.836 8.836 0 0 1-.352 1.649 4.68 4.68 0 0 1-.648 1.312c-.266.37-.588.656-.969.86-.38.203-.825.304-1.336.304-.515 0-.979-.107-1.39-.32a3.057 3.057 0 0 1-1.04-.898 4.328 4.328 0 0 1-.648-1.36 6.3 6.3 0 0 1-.219-1.703Zm2.07-.164v.164c0 .365.032.706.094 1.023.063.318.165.6.305.844.14.24.32.427.54.563.223.135.494.203.812.203.406 0 .74-.089 1-.266a1.81 1.81 0 0 0 .617-.742c.146-.318.24-.675.281-1.07v-1.227a3.459 3.459 0 0 0-.164-.867 2.054 2.054 0 0 0-.36-.688 1.592 1.592 0 0 0-.562-.453 1.797 1.797 0 0 0-.797-.164c-.317 0-.588.07-.812.211a1.556 1.556 0 0 0-.547.57 2.89 2.89 0 0 0-.313.852 5.51 5.51 0 0 0-.093 1.047Zm9.813-4.164V17h-2.07V8.547h2.07ZM83.7 6.336c0-.307.104-.563.313-.766.213-.203.5-.304.859-.304.36 0 .643.101.851.304.214.203.32.459.32.766 0 .302-.106.555-.32.758-.208.203-.492.304-.851.304-.36 0-.646-.101-.86-.304a1.016 1.016 0 0 1-.312-.758Zm9.156 8.867v-3.898c0-.287-.05-.534-.148-.742a1.073 1.073 0 0 0-.454-.485c-.203-.114-.46-.172-.773-.172-.276 0-.518.047-.727.14a1.07 1.07 0 0 0-.468.4 1.03 1.03 0 0 0-.164.577h-2.07c0-.348.083-.68.25-.992.166-.317.403-.599.71-.844.313-.25.685-.445 1.117-.585a4.78 4.78 0 0 1 1.47-.211c.64 0 1.21.109 1.71.328.505.213.901.536 1.188.969.291.432.437.976.437 1.632v3.688c0 .422.026.784.078 1.086a3 3 0 0 0 .25.773V17h-2.101a3.113 3.113 0 0 1-.227-.813 6.368 6.368 0 0 1-.078-.984Zm.289-3.351.016 1.226h-1.305c-.323 0-.607.034-.852.102a1.574 1.574 0 0 0-.601.28c-.156.12-.274.267-.352.438a1.33 1.33 0 0 0-.117.57c0 .21.047.397.14.563.1.167.24.3.423.399.187.093.406.14.656.14.364 0 .682-.073.953-.218.27-.152.482-.334.633-.547.15-.214.231-.417.242-.61l.594.89a3.52 3.52 0 0 1-.328.68c-.146.24-.334.464-.563.672-.23.209-.505.38-.828.516a2.892 2.892 0 0 1-1.125.203 3.22 3.22 0 0 1-1.469-.328 2.603 2.603 0 0 1-1.023-.898 2.307 2.307 0 0 1-.375-1.297c0-.448.083-.844.25-1.188.166-.343.414-.633.742-.867.328-.24.734-.42 1.219-.539a6.815 6.815 0 0 1 1.68-.187h1.39Z"/>
  <path fill="#fff" fill-opacity=".1" d="M40 60a19.937 19.937 0 0 1-5.858 14.142A19.937 19.937 0 0 1 20 80a19.937 19.937 0 0 1-14.142-5.858A19.937 19.937 0 0 1 0 60a19.937 19.937 0 0 1 5.858-14.142A19.937 19.937 0 0 1 20 40a19.937 19.937 0 0 1 14.142 5.858A19.937 19.937 0 0 1 40 60Z"/>
  <g fill="#F4F4FD" clip-path="url(#a)">
    <path d="M31.977 55.056c-.057-1.275-.263-2.152-.558-2.911a5.857 5.857 0 0 0-1.388-2.129 5.906 5.906 0 0 0-2.124-1.383c-.764-.296-1.636-.502-2.912-.558-1.284-.06-1.692-.075-4.95-.075-3.259 0-3.667.014-4.947.07-1.275.057-2.152.263-2.911.558a5.856 5.856 0 0 0-2.129 1.388 5.91 5.91 0 0 0-1.383 2.124c-.295.764-.502 1.636-.558 2.911-.06 1.285-.075 1.693-.075 4.951 0 3.259.014 3.667.07 4.947.057 1.275.263 2.151.559 2.911a5.918 5.918 0 0 0 1.387 2.129 5.9 5.9 0 0 0 2.124 1.383c.764.295 1.636.501 2.912.558 1.28.056 1.688.07 4.946.07s3.666-.014 4.946-.07c1.275-.057 2.152-.263 2.912-.558a6.139 6.139 0 0 0 3.511-3.512c.296-.764.502-1.636.558-2.911.056-1.28.07-1.688.07-4.947 0-3.258-.004-3.666-.06-4.946Zm-2.162 9.799c-.051 1.172-.248 1.805-.412 2.227a3.981 3.981 0 0 1-2.279 2.279c-.422.164-1.06.36-2.227.412-1.266.056-1.645.07-4.848.07-3.202 0-3.586-.014-4.848-.07-1.172-.051-1.805-.248-2.227-.412a3.693 3.693 0 0 1-1.378-.896 3.73 3.73 0 0 1-.896-1.378c-.164-.422-.36-1.06-.412-2.227-.056-1.266-.07-1.646-.07-4.848 0-3.203.014-3.587.07-4.848.051-1.172.248-1.805.412-2.227a3.68 3.68 0 0 1 .9-1.379 3.725 3.725 0 0 1 1.38-.895c.421-.164 1.059-.36 2.226-.413 1.266-.056 1.646-.07 4.848-.07 3.207 0 3.587.014 4.848.07 1.172.052 1.805.249 2.227.413.52.192.994.497 1.378.895.399.39.703.858.896 1.379.164.422.36 1.06.412 2.227.056 1.266.07 1.645.07 4.848 0 3.202-.014 3.577-.07 4.843Z"/>
    <path d="M20.044 53.837a6.167 6.167 0 0 0-6.165 6.165 6.167 6.167 0 0 0 6.165 6.166 6.167 6.167 0 0 0 6.166-6.166 6.167 6.167 0 0 0-6.166-6.165Zm0 10.165a4 4 0 1 1 .002-8 4 4 0 0 1-.002 8Zm7.849-10.409a1.44 1.44 0 1 1-2.879 0 1.44 1.44 0 0 1 2.879 0Z"/>
  </g>
  <path fill="#fff" fill-opacity=".1" d="M96 60a19.937 19.937 0 0 1-5.858 14.142A19.937 19.937 0 0 1 76 80a19.937 19.937 0 0 1-14.142-5.858A19.937 19.937 0 0 1 56 60a19.937 19.937 0 0 1 5.858-14.142A19.937 19.937 0 0 1 76 40a19.937 19.937 0 0 1 14.142 5.858A19.937 19.937 0 0 1 96 60Z"/>
  <g clip-path="url(#b)">
    <path fill="#F4F4FD" d="M88 52.559a10.31 10.31 0 0 1-2.835.777 4.893 4.893 0 0 0 2.164-2.72 9.833 9.833 0 0 1-3.12 1.191 4.919 4.919 0 0 0-8.511 3.364c0 .39.034.766.115 1.123-4.091-.2-7.71-2.16-10.142-5.147a4.954 4.954 0 0 0-.674 2.487c0 1.704.878 3.215 2.186 4.089a4.859 4.859 0 0 1-2.223-.606v.054a4.943 4.943 0 0 0 3.942 4.834c-.4.11-.837.162-1.29.162a4.35 4.35 0 0 1-.931-.084c.637 1.949 2.446 3.382 4.597 3.428a9.886 9.886 0 0 1-6.1 2.099A9.31 9.31 0 0 1 64 67.542a13.852 13.852 0 0 0 7.548 2.208c9.054 0 14.004-7.5 14.004-14.001 0-.218-.008-.428-.018-.636A9.816 9.816 0 0 0 88 52.559Z"/>
  </g>
  <path fill="#fff" fill-opacity=".1" d="M152 60a19.939 19.939 0 0 1-5.858 14.142A19.936 19.936 0 0 1 132 80a19.936 19.936 0 0 1-14.142-5.858A19.939 19.939 0 0 1 112 60a19.939 19.939 0 0 1 5.858-14.142A19.936 19.936 0 0 1 132 40a19.936 19.936 0 0 1 14.142 5.858A19.939 19.939 0 0 1 152 60Z"/>
  <g clip-path="url(#c)">
    <path fill="#F4F4FD" d="M135.997 51.985h2.191v-3.816c-.378-.052-1.678-.169-3.192-.169-3.159 0-5.323 1.987-5.323 5.639V57h-3.486v4.266h3.486V72h4.274V61.267h3.345l.531-4.266h-3.877v-2.939c.001-1.233.333-2.077 2.051-2.077Z"/>
  </g>
  <path fill="#fff" fill-opacity=".1" d="M208 60a19.939 19.939 0 0 1-5.858 14.142A19.936 19.936 0 0 1 188 80a19.936 19.936 0 0 1-14.142-5.858A19.939 19.939 0 0 1 168 60a19.939 19.939 0 0 1 5.858-14.142A19.936 19.936 0 0 1 188 40a19.936 19.936 0 0 1 14.142 5.858A19.939 19.939 0 0 1 208 60Z"/>
  <g fill="#F4F4FD" clip-path="url(#d)">
    <path d="M199.994 72H200v-8.803c0-4.306-.927-7.623-5.961-7.623-2.42 0-4.044 1.328-4.707 2.587h-.07v-2.185h-4.773V72h4.97v-7.934c0-2.089.396-4.109 2.983-4.109 2.549 0 2.587 2.384 2.587 4.243V72h4.965Zm-23.598-16.023h4.976V72h-4.976V55.977ZM178.882 48A2.883 2.883 0 0 0 176 50.882c0 1.591 1.291 2.909 2.882 2.909 1.591 0 2.882-1.318 2.882-2.909A2.884 2.884 0 0 0 178.882 48Z"/>
  </g>
  <defs>
    <clipPath id="a">
      <path fill="#fff" d="M8 48h24v24H8z"/>
    </clipPath>
    <clipPath id="b">
      <path fill="#fff" d="M64 48h24v24H64z"/>
    </clipPath>
    <clipPath id="c">
      <path fill="#fff" d="M120 48h24v24h-24z"/>
    </clipPath>
    <clipPath id="d">
      <path fill="#fff" d="M176 48h24v24h-24z"/>
    </clipPath>
  </defs>
</svg>
